<svg fill="none" height="18" viewBox="0 0 228 18" width="228" xmlns="http://www.w3.org/2000/svg"><path d="m88.8343 14v-4.68c0-2.085-1.515-2.745-3.165-2.745-1.14 0-2.28.36-3.165 1.14l.72 1.275c.615-.57 1.335-.855 2.115-.855.96 0 1.59.48 1.59 1.215v.975c-.48-.57-1.335-.885-2.295-.885-1.155 0-2.52.645-2.52 2.34 0 1.62 1.365 2.4 2.52 2.4.945 0 1.8-.345 2.295-.93v.75zm-3.435-1.11c-.75 0-1.365-.39-1.365-1.065 0-.705.615-1.095 1.365-1.095.615 0 1.215.21 1.53.63v.9c-.315.42-.915.63-1.53.63zm12.1195 1.11v-5.115c0-1.41-.765-2.31-2.355-2.31-1.185 0-2.07.57-2.535 1.125v-.945h-1.905v7.245h1.905v-4.875c.315-.435.9-.855 1.65-.855.81 0 1.335.345 1.335 1.35v4.38zm8.6862 0v-5.115c0-1.41-.765-2.31-2.355-2.31-1.185 0-2.07.57-2.535 1.125v-.945h-1.9047v7.245h1.9047v-4.875c.315-.435.9-.855 1.65-.855.81 0 1.335.345 1.335 1.35v4.38zm8.147 0v-4.68c0-2.085-1.515-2.745-3.165-2.745-1.14 0-2.28.36-3.165 1.14l.72 1.275c.615-.57 1.335-.855 2.115-.855.96 0 1.59.48 1.59 1.215v.975c-.48-.57-1.335-.885-2.295-.885-1.155 0-2.52.645-2.52 2.34 0 1.62 1.365 2.4 2.52 2.4.945 0 1.8-.345 2.295-.93v.75zm-3.435-1.11c-.75 0-1.365-.39-1.365-1.065 0-.705.615-1.095 1.365-1.095.615 0 1.215.21 1.53.63v.9c-.315.42-.915.63-1.53.63zm7.229 1.11v-10.005h-1.905v10.005zm2.834-8.025c.63 0 1.14-.51 1.14-1.14s-.51-1.125-1.14-1.125c-.615 0-1.14.495-1.14 1.125s.525 1.14 1.14 1.14zm.96 8.025v-7.245h-1.905v7.245zm4.499.18c2.01 0 3.135-1.005 3.135-2.325 0-2.925-4.29-2.025-4.29-3.105 0-.405.45-.72 1.14-.72.885 0 1.71.375 2.145.84l.765-1.305c-.72-.57-1.695-.99-2.925-.99-1.905 0-2.97 1.065-2.97 2.28 0 2.85 4.305 1.875 4.305 3.075 0 .45-.39.78-1.215.78-.9 0-1.98-.495-2.505-.99l-.825 1.335c.765.705 1.98 1.125 3.24 1.125zm7.944 0c1.125 0 2.265-.345 2.985-1.005l-.84-1.23c-.465.45-1.32.72-1.935.72-1.23 0-1.965-.765-2.085-1.68h5.385v-.42c0-2.37-1.47-3.99-3.63-3.99-2.205 0-3.75 1.695-3.75 3.795 0 2.325 1.665 3.81 3.87 3.81zm1.665-4.485h-3.57c.09-.72.6-1.605 1.785-1.605 1.26 0 1.74.915 1.785 1.605zm4.137 4.47c.66 0 1.215-.555 1.215-1.215s-.555-1.215-1.215-1.215-1.215.555-1.215 1.215.555 1.215 1.215 1.215z" fill="#fcfcfc"/><g fill="#754eef"><path d="m149.303 14v-4.68c0-2.085-1.515-2.745-3.165-2.745-1.14 0-2.28.36-3.165 1.14l.72 1.275c.615-.57 1.335-.855 2.115-.855.96 0 1.59.48 1.59 1.215v.975c-.48-.57-1.335-.885-2.295-.885-1.155 0-2.52.645-2.52 2.34 0 1.62 1.365 2.4 2.52 2.4.945 0 1.8-.345 2.295-.93v.75zm-3.435-1.11c-.75 0-1.365-.39-1.365-1.065 0-.705.615-1.095 1.365-1.095.615 0 1.215.21 1.53.63v.9c-.315.42-.915.63-1.53.63zm6.27-6.915c.63 0 1.14-.51 1.14-1.14s-.51-1.125-1.14-1.125c-.615 0-1.14.495-1.14 1.125s.525 1.14 1.14 1.14zm.96 8.025v-7.245h-1.905v7.245z"/><circle cx="75.5" cy="12.5" r="2.5"/><circle cx="69.5" cy="12.5" r="2.5"/><circle cx="72.5" cy="7.5" r="2.5"/></g></svg>